 http://imageshack.us/scaled/landing/823/urlsy.jpg

PLOT :

The heroic story of a dictator who risks his life to ensure that democracy would never come to the country he so lovingly oppressed.


General
Complete name : The Dictator (2012) UNRATED 720p BRRip x264 - GΓä░ΓäòIAΓäÆ VΓäæSΓäî.mkv
Format : Matroska
Format version : Version 2
File size : 554 MiB
Duration : 1h 31mn
Overall bit rate : 850 Kbps
Movie name : The Dictator (2012) UNRATED 720p BRRip x264
Encoded date : UTC 2013-04-04 02:20:38
Writing application : mkvmerge v4.9.1 ('Ich will') built on Jul 11 2011 23:53:15
Writing library : libebml v1.2.1 + libmatroska v1.1.1

Video
ID : 1
Format : AVC
Format/Info : Advanced Video Codec
Format profile : High@L3.1
Format settings, CABAC : Yes
Format settings, ReFrames : 4 frames
Muxing mode : Header stripping
Codec ID : V_MPEG4/ISO/AVC
Duration : 1h 31mn
Bit rate : 717 Kbps
Width : 1 280 pixels
Height : 544 pixels
Display aspect ratio : 2.35:1
Frame rate : 23.976 fps
Color space : YUV
Chroma subsampling : 4:2:0
Bit depth : 8 bits
Scan type : Progressive
Bits/(Pixel*Frame) : 0.043
Stream size : 460 MiB (83%)
Writing library : x264 core 125 r2200 999b753
Language : English
Default : Yes
Forced : No

Audio
ID : 2
Format : AC-3
Format/Info : Audio Coding 3
Mode extension : CM (complete main)
Format settings, Endianness : Big
Muxing mode : Header stripping
Codec ID : A_AC3
Duration : 1h 31mn
Bit rate mode : Constant
Bit rate : 128 Kbps
Channel(s) : 2 channels
Channel positions : Front: L R
Sampling rate : 44.1 KHz
Bit depth : 16 bits
Compression mode : Lossy
Stream size : 83.5 MiB (15%)
Title : English
Language : English
 
http://img171.imageshack.us/img171/6153/thedictator2012unrated7.jpg